<svg xmlns="http://www.w3.org/2000/svg" viewBox="0 0 96 96" width="96" height="96">
	<style>
		tspan { white-space:pre }
		.shp0 { fill: #333333 } 
		.shp1 { fill: #ff6363 } 
	</style>
	<g id="How It Works">
		<g id="Search">
			<path id="Ellipse 1" class="shp0" d="M48 0C74.51 0 96 21.49 96 48C96 74.51 74.51 96 48 96C21.49 96 0 74.51 0 48C0 21.49 21.49 0 48 0Z" />
			<path id="" class="shp1" d="M48 17.55C52.12 17.55 56.02 18.32 59.67 19.87C63.33 21.41 66.51 23.55 69.23 26.27C71.95 28.99 74.09 32.17 75.63 35.83C77.18 39.48 77.95 43.38 77.95 47.5C77.95 51.63 77.18 55.52 75.63 59.17C74.09 62.83 71.95 66.02 69.23 68.73C66.51 71.45 63.33 73.59 59.67 75.13C56.02 76.68 52.12 77.45 48 77.45C43.87 77.45 39.98 76.68 36.33 75.13C32.67 73.59 29.48 71.45 26.77 68.73C24.05 66.02 21.91 62.83 20.37 59.17C18.82 55.52 18.05 51.63 18.05 47.5C18.05 43.38 18.82 39.48 20.37 35.83C21.91 32.17 24.05 28.99 26.77 26.27C29.48 23.55 32.67 21.41 36.33 19.87C39.98 18.32 43.87 17.55 48 17.55L48 17.55ZM48 75.06C51.84 75.06 55.43 74.34 58.76 72.88C62.08 71.43 65.02 69.49 67.55 67.05C69.98 64.52 71.93 61.59 73.38 58.26C74.84 54.93 75.56 51.35 75.56 47.5C75.56 43.66 74.84 40.07 73.38 36.74C71.93 33.42 69.98 30.48 67.55 27.95C65.02 25.52 62.08 23.57 58.76 22.12C55.43 20.66 51.84 19.94 48 19.94C44.15 19.94 40.57 20.66 37.24 22.12C33.91 23.57 30.98 25.52 28.45 27.95C26.01 30.48 24.07 33.42 22.62 36.74C21.16 40.07 20.44 43.66 20.44 47.5C20.44 51.35 21.16 54.93 22.62 58.26C24.07 61.59 26.01 64.52 28.45 67.05C30.98 69.49 33.91 71.43 37.24 72.88C40.57 74.34 44.15 75.06 48 75.06L48 75.06ZM63.05 36.81C63.33 36.44 63.73 36.25 64.24 36.25C64.76 36.25 65.2 36.44 65.58 36.81C65.86 37.19 66 37.63 66 38.15C66 38.66 65.81 39.06 65.44 39.34L44.91 59.31C44.81 59.5 44.65 59.62 44.41 59.66C44.18 59.71 43.97 59.73 43.78 59.73C43.5 59.73 43.24 59.71 43.01 59.66C42.77 59.62 42.61 59.5 42.52 59.31L34.5 51.3C34.12 50.92 33.94 50.48 33.94 49.96C33.94 49.45 34.12 49.05 34.5 48.77C34.78 48.39 35.18 48.2 35.7 48.2C36.21 48.2 36.66 48.39 37.03 48.77L43.78 55.52L63.05 36.81L63.05 36.81Z" />
		</g>
	</g>
</svg>