<svg xmlns="http://www.w3.org/2000/svg" viewBox="0 0 96 96" width="96" height="96">
	<style>
		tspan { white-space:pre }
		.shp0 { fill: #333333 } 
		.shp1 { fill: #5474fd } 
	</style>
	<g id="How It Works">
		<g id="Search">
			<path id="Ellipse 1" class="shp0" d="M48 0C74.51 0 96 21.49 96 48C96 74.51 74.51 96 48 96C21.49 96 0 74.51 0 48C0 21.49 21.49 0 48 0Z" />
			<path id="" class="shp1" d="M76.27 73.81L73.31 76.77L57 60.45C56.06 61.3 55.03 62.05 53.91 62.7C52.78 63.36 51.61 63.92 50.39 64.39C49.17 64.86 47.88 65.21 46.52 65.45C45.16 65.68 43.83 65.8 42.52 65.8C39.33 65.8 36.35 65.19 33.59 63.97C30.82 62.75 28.4 61.11 26.34 59.05C24.28 56.99 22.66 54.57 21.49 51.8C20.32 49.04 19.73 46.11 19.73 43.02C19.73 39.83 20.32 36.85 21.49 34.09C22.66 31.32 24.28 28.91 26.34 26.84C28.4 24.78 30.82 23.17 33.59 21.99C36.35 20.82 39.33 20.23 42.52 20.23C45.61 20.23 48.54 20.82 51.3 21.99C54.07 23.17 56.48 24.78 58.55 26.84C60.61 28.91 62.25 31.32 63.47 34.09C64.69 36.85 65.3 39.83 65.3 43.02C65.3 44.33 65.18 45.67 64.95 47.02C64.71 48.38 64.36 49.67 63.89 50.89C63.42 52.11 62.86 53.28 62.2 54.41C61.55 55.53 60.8 56.56 59.95 57.5L76.27 73.81L76.27 73.81ZM22.12 43.02C22.12 45.83 22.64 48.45 23.67 50.89C24.7 53.33 26.15 55.48 28.03 57.36C29.91 59.24 32.09 60.71 34.57 61.79C37.05 62.87 39.7 63.41 42.52 63.41C45.33 63.41 47.95 62.87 50.39 61.79C52.83 60.71 54.98 59.24 56.86 57.36C58.73 55.48 60.21 53.33 61.29 50.89C62.37 48.45 62.91 45.83 62.91 43.02C62.91 40.2 62.37 37.56 61.29 35.07C60.21 32.59 58.73 30.41 56.86 28.53C54.98 26.66 52.83 25.2 50.39 24.17C47.95 23.14 45.33 22.62 42.52 22.62C39.7 22.62 37.05 23.14 34.57 24.17C32.09 25.2 29.91 26.66 28.03 28.53C26.15 30.41 24.7 32.59 23.67 35.07C22.64 37.56 22.12 40.2 22.12 43.02L22.12 43.02Z" />
		</g>
	</g>
</svg>