<svg xmlns="http://www.w3.org/2000/svg" viewBox="0 0 96 96" width="96" height="96">
	<style>
		tspan { white-space:pre }
		.shp0 { fill: #333333 } 
		.shp1 { fill: #00a2ff } 
	</style>
	<g id="How It Works">
		<g id="Search">
			<path id="Ellipse 1" class="shp0" d="M48 0C74.51 0 96 21.49 96 48C96 74.51 74.51 96 48 96C21.49 96 0 74.51 0 48C0 21.49 21.49 0 48 0Z" />
			<path id="" class="shp1" d="M78.59 46.66C78.59 47.31 78.49 47.92 78.3 48.48C78.12 49.05 77.83 49.56 77.46 50.03C77.09 50.5 76.66 50.87 76.2 51.16C75.73 51.44 75.21 51.67 74.65 51.86C74.93 52.33 75.16 52.82 75.35 53.34C75.54 53.85 75.63 54.44 75.63 55.09C75.63 55.66 75.54 56.22 75.35 56.78C75.16 57.34 74.93 57.86 74.65 58.33C74.27 58.7 73.85 59.06 73.38 59.38C72.91 59.71 72.44 59.97 71.98 60.16C72.26 60.63 72.49 61.14 72.68 61.7C72.87 62.27 72.96 62.83 72.96 63.39C72.96 64.05 72.87 64.63 72.68 65.15C72.49 65.66 72.26 66.16 71.98 66.62C71.6 67.1 71.18 67.49 70.71 67.82C70.24 68.15 69.73 68.36 69.16 68.45C69.54 68.92 69.82 69.42 70.01 69.93C70.19 70.45 70.29 71.03 70.29 71.69C70.29 72.34 70.15 73 69.87 73.66C69.59 74.31 69.21 74.88 68.74 75.34C68.18 75.81 67.57 76.19 66.91 76.47C66.26 76.75 65.55 76.89 64.8 76.89L46.24 76.89C45.59 76.89 44.84 76.8 43.99 76.61C43.15 76.42 42.26 76.14 41.32 75.77C40.38 75.48 39.44 75.13 38.51 74.71C37.57 74.29 36.63 73.89 35.7 73.52C34.57 73.05 33.47 72.58 32.39 72.11C31.31 71.64 30.54 71.41 30.07 71.41L17.27 71.41L17.27 43.98L18.4 43.84C23.74 43.84 27.4 43.84 29.37 43.84C30.21 43.84 30.98 43.75 31.69 43.56C32.39 43.38 33.12 43 33.87 42.44C34.71 41.97 35.67 41.31 36.75 40.47C37.83 39.62 39.12 38.59 40.62 37.37C43.52 34.94 45.23 31.89 45.75 28.23C46.26 24.58 46.52 22.47 46.52 21.91C46.52 21.34 46.66 20.81 46.95 20.29C47.23 19.77 47.6 19.37 48.07 19.09C48.54 18.72 49.03 18.46 49.55 18.32C50.06 18.18 50.55 18.11 51.02 18.11C51.77 18.11 52.52 18.2 53.27 18.39C54.02 18.58 54.73 19 55.38 19.66C56.04 20.31 56.55 21.18 56.93 22.26C57.3 23.34 57.49 24.77 57.49 26.55C57.49 28.14 57.37 29.66 57.14 31.12C56.91 32.57 56.6 33.95 56.23 35.27C55.95 36.58 55.59 37.77 55.17 38.85C54.75 39.93 54.4 40.84 54.12 41.59L73.24 41.59C74.09 41.59 74.81 41.71 75.42 41.95C76.03 42.18 76.62 42.53 77.18 43C77.65 43.47 78 44.01 78.23 44.62C78.47 45.23 78.59 45.91 78.59 46.66L78.59 46.66L78.59 46.66ZM73.24 49.61C73.71 49.61 74.13 49.54 74.51 49.4C74.88 49.26 75.16 49.05 75.35 48.77C75.63 48.48 75.87 48.18 76.05 47.85C76.24 47.52 76.34 47.13 76.34 46.66C76.34 45.91 76.05 45.25 75.49 44.69C74.93 44.12 74.18 43.84 73.24 43.84L64.8 43.84C64.8 43.94 64.8 43.94 64.8 43.84L50.32 43.84L51.16 42.16C53.79 35.69 55.1 30.48 55.1 26.55C55.1 23.45 54.59 21.65 53.55 21.13C52.52 20.62 51.68 20.36 51.02 20.36C50.74 20.36 50.32 20.5 49.76 20.78C49.2 21.06 48.91 21.44 48.91 21.91C48.91 22.47 48.87 23.41 48.77 24.72C48.68 26.03 48.4 27.53 47.93 29.22C47.46 30.91 46.78 32.64 45.89 34.42C45 36.2 43.76 37.75 42.16 39.06C40.57 40.38 39.23 41.48 38.16 42.37C37.08 43.26 36.07 43.98 35.13 44.55C34.19 45.11 33.26 45.53 32.32 45.81C31.38 46.09 30.4 46.23 29.37 46.23C28.62 46.23 27.8 46.23 26.91 46.23C26.01 46.23 25.1 46.23 24.16 46.23C23.32 46.23 22.5 46.23 21.7 46.23C20.91 46.23 20.23 46.23 19.66 46.23L19.66 69.02L30.07 69.02C30.72 69.02 31.59 69.23 32.67 69.65C33.75 70.07 35.08 70.61 36.68 71.27C37.43 71.64 38.25 72.04 39.14 72.46C40.03 72.88 40.9 73.23 41.74 73.52C42.68 73.8 43.52 74.06 44.27 74.29C45.02 74.52 45.68 74.64 46.24 74.64L61.85 74.64L64.8 74.64C65.27 74.64 65.69 74.55 66.07 74.36C66.44 74.17 66.77 73.94 67.05 73.66C67.34 73.47 67.55 73.19 67.69 72.81C67.83 72.44 67.9 72.06 67.9 71.69C67.9 71.22 67.83 70.82 67.69 70.49C67.55 70.16 67.34 69.86 67.05 69.58C66.77 69.3 66.44 69.09 66.07 68.95C65.69 68.8 65.27 68.73 64.8 68.73L64.52 68.73L64.52 66.34L67.76 66.34C68.13 66.34 68.51 66.27 68.88 66.13C69.26 65.99 69.59 65.78 69.87 65.5C70.05 65.22 70.24 64.89 70.43 64.52C70.62 64.14 70.71 63.77 70.71 63.39C70.71 63.02 70.62 62.64 70.43 62.27C70.24 61.89 70.05 61.56 69.87 61.28C69.59 61.09 69.26 60.91 68.88 60.72C68.51 60.53 68.13 60.44 67.76 60.44L66.77 60.44L66.77 58.05L70.29 58.05C70.66 58.05 71.04 57.98 71.41 57.84C71.79 57.7 72.12 57.48 72.4 57.2C72.68 56.92 72.91 56.59 73.1 56.22C73.29 55.85 73.38 55.47 73.38 55.09C73.38 54.63 73.29 54.2 73.1 53.83C72.91 53.45 72.68 53.17 72.4 52.98C72.12 52.7 71.79 52.47 71.41 52.28C71.04 52.09 70.66 52 70.29 52L69.16 52L69.16 49.61L73.24 49.61L73.24 49.61L73.24 49.61L73.24 49.61L73.24 49.61Z" />
		</g>
	</g>
</svg>